<svg width="169" height="148" viewBox="0 0 169 148" fill="none" xmlns="http://www.w3.org/2000/svg">
<path d="M124.763 66.6676C126.814 77.0156 124.499 87.7207 118.326 96.4369C112.153 105.153 102.625 111.17 91.8293 113.168C86.4739 114.13 80.9731 114.068 75.6428 112.987C70.3124 111.905 65.2576 109.826 60.7686 106.868C56.2797 103.909 52.4451 100.131 49.4851 95.7486C46.5251 91.3666 44.4982 86.4675 43.5205 81.3327C41.4546 70.9879 43.7589 60.2805 49.9275 51.5619C56.096 42.8432 65.6245 36.8262 76.4205 34.832C81.7778 33.8705 87.2807 33.9319 92.6132 35.0128C97.9457 36.0937 103.003 38.1728 107.494 41.1307C111.986 44.0887 115.824 47.8672 118.787 52.2495C121.75 56.6318 123.781 61.5316 124.763 66.6676Z" fill="white" stroke="#00365F" stroke-width="0.39" stroke-miterlimit="10"/>
<path fill-rule="evenodd" clip-rule="evenodd" d="M50.8656 48.9714C55.032 47.9276 59.3322 39.8472 63.0802 39.2075H63.9001C65.1383 39.2075 65.908 40.5542 67.9493 40.672L68.7358 41.5474C69.5892 41.1771 70.4091 41.2107 70.8609 40.4027L74.2073 40.571C77.2694 37.3893 84.2468 38.5677 85.6858 34.0561L87.7438 34.174C88.1789 33.77 89.9191 31.7667 90.739 31.8172C82.3788 30.4793 73.8119 31.7913 66.226 35.5712C62.8795 37.4735 55.5841 42.1198 52.0201 46.9513L51.3508 48.0792L50.8656 48.9714ZM84.4643 57.0182L84.3304 59.9305C84.7153 59.9305 85.9033 60.8396 86.3384 60.8733C87.1253 60.564 87.9785 60.4654 88.8147 60.5871L89.6011 61.4456C89.1493 61.8496 88.3294 62.22 87.9279 62.6072C87.5263 62.1863 87.5263 62.1863 86.6897 62.6072H85.8698C84.6483 62.1358 83.4102 62.0685 82.2221 61.5971H81.7871C80.2777 61.7366 78.7562 61.6572 77.2693 61.3614L76.8344 61.7655C76.0312 61.7655 74.4583 59.9642 73.6719 59.5097C73.6719 59.0888 74.1069 58.7016 74.1236 58.2808C73.722 58.2808 72.9356 57.3886 72.4504 57.3717C72.2636 57.0958 72.0147 56.8681 71.7239 56.7072C71.4332 56.5464 71.1088 56.4568 70.7771 56.4458V55.6209C69.4714 56.3453 68.0503 56.8352 66.5774 57.0687C64.0508 57.7757 60.1855 60.9238 57.7258 60.7723C55.0989 63.9876 54.965 66.4959 54.7308 71.0917C56.2702 73.2465 56.906 76.6134 58.4621 78.785C60.934 78.5734 63.4193 78.5734 65.8913 78.785L65.7741 80.8725C66.7105 81.1364 67.6935 81.1882 68.6522 81.024C69.0203 81.8825 68.5518 83.1114 68.4681 84.7612C70.0075 86.9328 72.0656 87.4547 71.8146 91.6296L70.911 92.8417C70.6768 97.892 75.4121 101.848 77.7379 105.299C79.796 105.417 81.8875 104.272 84.4308 104.39C84.9993 102.864 86.0911 101.592 87.5095 100.804L87.6267 98.296C90.1031 98.4138 91.9102 95.1648 92.8639 92.707C92.4624 92.2693 91.6759 91.8148 91.2743 91.3771C91.2743 90.1313 91.8266 88.8856 91.8768 88.0102C92.3788 85.9564 100.076 80.923 99.6573 80.4684C99.7744 78.381 99.7577 78.785 101.046 77.6403L98.5698 77.5056C97.7164 78.2968 96.0934 77.7918 95.2233 77.7413C94.7866 76.7549 94.2119 75.8366 93.5165 75.0141C93.1484 74.1724 93.1652 73.7515 92.7971 72.893C92.4289 72.4553 91.1238 71.9839 90.8059 71.5462C90.4378 70.6708 90.8059 69.8628 90.5215 69.0211C90.5215 68.1794 89.7685 67.7248 89.3837 66.8663C89.049 65.6037 87.4761 63.8529 87.543 62.5904C88.7812 62.5904 89.4506 65.6205 90.3207 64.8293L91.8433 67.9268L92.0943 70.856L94.8551 73.499L95.9428 76.4787C99.6406 76.6639 102.385 71.4284 105.681 71.5631L106.183 69.8796C106.183 69.4756 105.832 68.6171 105.848 68.1962H104.61L103.824 67.304C101.766 67.203 98.804 67.4723 97.365 64.8967C96.5283 64.8967 96.1937 63.2132 95.8256 62.3042C97.114 61.5466 99.0549 64.1391 99.7744 65.8562C101.448 65.8562 103.422 67.2871 105.112 66.5464L105.882 67.4218C106.459 67.0633 107.017 66.6756 107.555 66.2603H108.776C109.178 66.6979 110.349 67.9437 111.153 68.0447C111.153 68.8696 111.872 70.1658 111.855 70.6035C112.02 68.7863 111.975 66.956 111.721 65.1492C112.508 66.4454 113.579 69.0211 113.11 70.1995C113.11 70.1995 113.897 71.0917 114.332 71.0917C114.231 72.3543 114.516 75.3003 115.737 75.3676C115.758 75.7903 115.928 76.1917 116.216 76.5C116.504 76.8084 116.892 77.0037 117.31 77.0511C117.31 76.2262 117.779 75.8222 117.812 75.3676C117.343 76.1757 118.281 74.1219 118.281 74.1219L117.929 72.8593L117.712 69.0884C118.13 68.6844 119.385 67.91 119.853 67.5228C119.485 66.6643 119.485 66.6643 119.954 65.4522C120.372 65.4522 120.757 65.8899 121.627 65.9404C121.558 66.6504 121.76 67.3602 122.192 67.926C122.624 68.4917 123.253 68.8712 123.953 68.9874C123.953 68.1457 123.568 68.1457 124.07 66.8999H125.291C124.569 62.3427 123.122 57.9319 121.008 53.8365C118.128 48.2519 113.991 43.4212 108.927 39.7293C106.07 37.3391 102.812 35.4807 99.306 34.2413C99.306 34.2413 98.6367 33.7195 98.4526 33.8036C98.2686 33.8878 98.4526 33.8036 97.8669 34.4938C97.7398 34.6564 97.5723 34.7825 97.3814 34.8593C97.1905 34.9361 96.9829 34.9611 96.7794 34.9315C97.1475 35.7901 96.7793 35.3356 97.1474 36.1941H95.9093C95.9093 37.4399 96.6121 38.3152 96.5953 38.7361C96.177 39.1233 94.9221 38.7361 93.7341 38.5846C93.7341 37.7597 93.4329 36.0594 92.1947 36.0089C92.1947 36.413 91.7261 37.2378 91.6927 37.6924C92.0942 38.1301 92.864 39.3758 93.2489 39.864C91.5756 39.864 90.2538 41.7999 88.2291 40.8572C89.1494 38.8203 84.6484 38.1637 83.8285 38.1301L82.9584 38.9213C82.1552 38.4499 78.7083 41.6148 77.8383 42.4228L78.5912 44.1062C81.9377 42.204 81.9377 43.0457 83.2595 41.4296C84.0627 41.4296 84.2468 41.2444 84.9328 41.8336C85.6188 42.4228 83.4771 44.0052 83.4771 44.3588C83.4771 44.7123 83.862 45.2173 83.8285 45.6382C82.9751 46.0085 81.7369 46.3452 81.7034 46.7829C81.2851 46.7829 80.917 46.3116 80.4987 46.2947C80.4987 45.8739 81.3855 45.0826 81.4023 44.6113C81.0174 44.1568 81.0174 44.1568 81.0509 43.7527C80.6325 43.7527 80.5824 44.1399 80.1808 44.1231H79.3609C79.3609 44.9648 79.3609 44.9648 79.3609 45.3857C78.9426 45.7729 78.0725 46.5641 77.6876 46.5472C78.541 45.756 75.6128 46.8502 75.1945 46.8334L73.8894 48.0287C72.5373 47.7385 71.1482 47.6646 69.7732 47.8098C69.7794 48.026 69.8619 48.2329 70.0061 48.3933C70.1502 48.5538 70.3465 48.6572 70.5597 48.6852C70.5083 49.4573 70.1744 50.183 69.6226 50.7221C69.221 50.7221 69.2377 50.2845 68.3844 50.7221L66.845 48.5674C66.6134 48.7761 66.3188 48.9006 66.0084 48.9209C66.0084 50.2003 65.473 51.4124 65.4228 52.2877L64.1176 53.9712L64.0173 55.6546C64.4356 55.6546 64.8371 56.0923 65.2387 56.1428C66.4936 55.7724 67.5478 56.53 68.8027 56.5973C68.8027 56.1765 69.8234 55.1159 69.8401 54.7119C70.6767 54.7119 71.0616 55.1832 71.8815 55.2169C72.7516 54.4425 73.6551 52.8096 74.8933 52.8601L76.416 55.4526C76.2481 55.6064 76.1182 55.7977 76.0368 56.0111C75.9555 56.2245 75.9249 56.4541 75.9475 56.6815C75.9475 56.6815 75.1108 56.6815 75.4789 57.4896C75.4789 58.3313 77.0518 59.173 77.4199 59.678C77.8717 59.2908 78.7585 57.6579 79.6119 57.2875L79.7123 55.6041L80.4653 56.4795V58.1629C81.3019 58.1629 82.0548 59.4928 82.0046 60.3346C82.3877 58.7455 83.0203 57.2282 83.8786 55.8398C84.297 55.8398 84.6651 56.7152 85.0667 56.732L85.5184 56.3448C85.92 56.3448 85.8866 56.7657 86.3216 56.7993C86.4437 56.0972 86.617 55.4052 86.8403 54.7287C88.0618 54.7287 88.8315 55.6714 90.0697 55.7388C90.2929 55.0623 90.4663 54.3703 90.5884 53.6682L91.4585 52.8769C90.5549 54.5604 93.7507 56.7657 94.5204 57.6411C93.6521 57.8984 92.7384 57.9616 91.8433 57.8262L91.0736 56.9509C90.0928 56.9571 89.1205 56.7683 88.2124 56.3953L86.8905 57.5737C86.0873 57.5737 85.7025 57.0855 85.2172 57.0687L84.4643 57.0182ZM100.812 58.7521L98.7705 58.668C98.7112 58.0649 98.8849 57.462 99.2557 56.9845L98.0844 55.6546H96.8463C96.4572 55.3175 96.1873 54.8628 96.0766 54.3584L96.5116 53.9543C96.9466 53.9543 97.7331 54.4425 98.1848 54.4762C98.315 53.6373 98.4882 52.8057 98.7035 51.9847C98.7461 52.4231 98.8651 52.8504 99.055 53.2473C99.8748 53.2473 99.8749 53.2473 100.276 53.7355C100.111 53.8909 99.9821 54.0824 99.9009 54.2954C99.8197 54.5084 99.7879 54.7372 99.8079 54.9644C100.21 54.9644 100.176 55.4021 100.594 55.8398C100.092 57.0687 101.331 57.1192 101.715 57.9777L100.812 58.7521ZM44.9925 86.714C46.3291 85.5544 47.7622 84.5125 49.276 83.5996C48.3043 82.3754 47.4315 81.075 46.6657 79.7109V78.0275C46.2429 77.9239 45.8372 77.7595 45.4611 77.5393L44.6746 77.0847C44.2951 75.8375 43.6498 74.6885 42.7838 73.7179C42.7316 78.1487 43.48 82.5523 44.9925 86.714ZM95.8925 99.7943C95.4909 99.7943 94.2193 99.2892 93.8512 99.2724C93.8512 98.8684 94.3197 98.4643 94.7547 98.0603L93.9516 97.2018V96.3432L94.8384 95.552L96.5116 95.653C97.3817 94.8618 99.5737 92.4713 100.795 92.5387C100.36 92.9258 99.5234 93.2962 99.1219 93.7002L99.8916 94.5588C99.5245 95.3372 99.3358 96.1887 99.3394 97.0503C97.6661 98.2118 96.7291 99.8448 95.9093 99.7943H95.8925ZM124.756 82.0677L124.538 79.9634L122.196 77.3372L122.313 74.8289C121.833 74.23 121.583 73.4769 121.61 72.7078C122.455 73.5501 123.386 74.3006 124.388 74.9468L124.287 76.6302L125.492 77.5393C125.429 79.0785 125.182 80.6046 124.756 82.0845V82.0677Z" fill="#00365F"/>
<path d="M82.1031 113.825L85.9332 34.5423M45.4898 89.9121C65.7368 108.678 103.076 110.548 119.83 93.9722L45.4898 89.9121ZM42.8746 65.4241C39.5001 89.7683 128.789 92.2778 125.398 69.564L42.8746 65.4241ZM48.8474 51.9812C47.2951 65.3442 122.766 71.5141 120.69 55.5937L48.8474 51.9812ZM62.1091 39.8651C52.0869 47.6974 118.497 51.4697 108.981 42.3107L62.1091 39.8651ZM85.9332 34.1587C100.882 34.8779 112.44 53.228 111.242 75.3024C110.5 97.0092 97.0183 114.544 82.0524 113.825C67.0865 113.105 55.9338 94.7554 56.7437 73.0486C57.9248 50.9742 70.9504 33.823 85.9838 34.1587H85.9332Z" stroke="#00365F" stroke-width="0.39" stroke-linecap="round" stroke-linejoin="round"/>
<path d="M61.3367 113.999C54.1338 109.99 48.1434 104.168 43.9795 97.1292C39.8156 90.0904 37.6281 82.0882 37.6411 73.9429C37.6259 67.9175 38.8173 61.9483 41.1471 56.3764C43.4769 50.8046 46.8995 45.7394 51.2192 41.4705C55.539 37.2015 60.671 33.8126 66.3222 31.4974C71.9733 29.1822 78.0326 27.9861 84.1536 27.9775C90.7736 27.9733 97.3174 29.3688 103.342 32.0694C109.367 34.77 114.732 38.7129 119.075 43.6312L140.35 25.121C133.351 17.2235 124.713 10.8948 115.019 6.56137C105.325 2.22795 94.8003 -0.00942642 84.1536 2.98504e-05C64.2665 0.0389578 45.2089 7.84966 31.17 21.7152C17.131 35.5808 9.25956 54.3665 9.28597 73.9429C9.27216 88.1494 13.4234 102.058 21.2415 113.999H61.3367ZM158.972 73.9429C158.979 66.243 157.771 58.5887 155.39 51.254C154.727 49.23 153.98 47.2712 153.168 45.3288C152.355 43.3864 150.233 39.322 150.233 39.322H134.546L127.084 56.2652C127.565 57.4241 128.013 58.6157 128.411 59.8236C129.903 64.3801 130.658 69.1392 130.649 73.9266C130.686 85.9898 125.876 97.5779 117.268 106.164C108.741 114.754 97.1145 119.681 84.9164 119.876H0V147.935H84.9164C104.643 147.74 123.489 139.865 137.332 126.029C151.24 112.155 159.018 93.4346 158.972 73.9429ZM150.183 119.941C141.249 132.465 128.853 142.203 114.465 148H168.274V119.892L150.183 119.941Z" fill="url(#paint0_linear_0_65)"/>
<defs>
<linearGradient id="paint0_linear_0_65" x1="0" y1="73.9592" x2="168.274" y2="73.9592" gradientUnits="userSpaceOnUse">
<stop stop-color="#E30613"/>
<stop offset="1" stop-color="#8A1002"/>
</linearGradient>
</defs>
</svg>
