<svg width="217" height="47" viewBox="0 0 217 47" fill="none" xmlns="http://www.w3.org/2000/svg">
    <g clip-path="url(#clip0_2_264)">
        <path d="M36.9681 20.0002C37.5742 23.1612 36.8904 26.4312 35.0664 29.0936C33.2425 31.7561 30.4272 33.594 27.2376 34.2045C25.6553 34.4981 24.03 34.4792 22.4551 34.1489C20.8801 33.8186 19.3866 33.1834 18.0603 32.2798C16.734 31.3762 15.601 30.2219 14.7265 28.8834C13.8519 27.5448 13.253 26.0483 12.9642 24.4799C12.3538 21.3199 13.0346 18.0492 14.8572 15.386C16.6797 12.7228 19.495 10.8848 22.6848 10.2756C24.2677 9.98193 25.8936 10.0007 27.4692 10.3309C29.0447 10.6611 30.5389 11.2961 31.866 12.1997C33.1931 13.1032 34.327 14.2574 35.2025 15.596C36.0781 16.9347 36.6781 18.4314 36.9681 20.0002Z" fill="white" stroke="#00365F" stroke-width="0.522407" stroke-miterlimit="10" />
        <path fill-rule="evenodd" clip-rule="evenodd" d="M15.1494 15.116C16.3749 14.8138 17.6398 12.474 18.7423 12.2888H18.9835C19.3477 12.2888 19.5741 12.6787 20.1746 12.7129L20.4059 12.9663C20.6569 12.8591 20.8981 12.8688 21.031 12.6349L22.0154 12.6836C22.9161 11.7623 24.9685 12.1036 25.3918 10.7972L25.9972 10.8313C26.1251 10.7143 26.637 10.1343 26.8782 10.1489C24.419 9.7615 21.8991 10.1414 19.6676 11.2359C18.6833 11.7867 16.5373 13.1321 15.489 14.531L15.2921 14.8576L15.1494 15.116ZM25.0325 17.446L24.9931 18.2893C25.1063 18.2893 25.4558 18.5525 25.5837 18.5622C25.8152 18.4727 26.0662 18.4442 26.3122 18.4794L26.5435 18.728C26.4106 18.845 26.1694 18.9522 26.0513 19.0643C25.9332 18.9424 25.9332 18.9424 25.6871 19.0643H25.4459C25.0866 18.9278 24.7224 18.9083 24.3729 18.7718H24.245C23.801 18.8122 23.3535 18.7892 22.9161 18.7036L22.7881 18.8206C22.5519 18.8206 22.0892 18.299 21.8579 18.1674C21.8579 18.0455 21.9858 17.9334 21.9908 17.8116C21.8726 17.8116 21.6413 17.5532 21.4986 17.5483C21.4436 17.4685 21.3704 17.4025 21.2849 17.3559C21.1994 17.3094 21.1039 17.2834 21.0064 17.2802V17.0414C20.6223 17.2511 20.2043 17.393 19.771 17.4606C19.0278 17.6653 17.8908 18.5769 17.1673 18.533C16.3946 19.464 16.3552 20.1903 16.2863 21.521C16.7391 22.145 16.9262 23.1199 17.3839 23.7487C18.111 23.6874 18.8421 23.6874 19.5692 23.7487L19.5347 24.3531C19.8102 24.4295 20.0993 24.4445 20.3813 24.397C20.4896 24.6456 20.3518 25.0014 20.3272 25.4791C20.78 26.1079 21.3854 26.259 21.3116 27.4679L21.0458 27.8189C20.9769 29.2812 22.3698 30.4267 23.0539 31.426C23.6593 31.4601 24.2745 31.1286 25.0226 31.1628C25.1898 30.7208 25.511 30.3526 25.9282 30.1245L25.9627 29.3982C26.6911 29.4323 27.2227 28.4915 27.5032 27.7799C27.3851 27.6531 27.1538 27.5215 27.0357 27.3948C27.0357 27.0341 27.1981 26.6734 27.2129 26.4199C27.3605 25.8252 29.6246 24.3677 29.5015 24.2361C29.536 23.6317 29.5311 23.7487 29.91 23.4172L29.1816 23.3782C28.9306 23.6073 28.4532 23.4611 28.1972 23.4465C28.0688 23.1609 27.8997 22.8949 27.6952 22.6568C27.5869 22.4131 27.5919 22.2912 27.4836 22.0426C27.3753 21.9159 26.9914 21.7794 26.8979 21.6527C26.7896 21.3992 26.8979 21.1652 26.8142 20.9215C26.8142 20.6778 26.5927 20.5461 26.4795 20.2976C26.3811 19.932 25.9184 19.425 25.9381 19.0594C26.3023 19.0594 26.4992 19.9368 26.7551 19.7077L27.203 20.6046L27.2769 21.4528L28.0889 22.2181L28.4089 23.0809C29.4966 23.1345 30.3038 21.6185 31.2734 21.6575L31.4211 21.1701C31.4211 21.0531 31.3177 20.8045 31.3226 20.6826H30.9584L30.7271 20.4243C30.1217 20.395 29.2505 20.473 28.8272 19.7272C28.5811 19.7272 28.4827 19.2398 28.3744 18.9766C28.7534 18.7572 29.3243 19.5079 29.536 20.0051C30.0282 20.0051 30.6089 20.4194 31.1061 20.2049L31.3325 20.4584C31.5022 20.3546 31.6664 20.2423 31.8247 20.1221H32.1839C32.3021 20.2488 32.6466 20.6095 32.8829 20.6388C32.8829 20.8776 33.0945 21.2529 33.0896 21.3797C33.1379 20.8535 33.1247 20.3235 33.0502 19.8004C33.2815 20.1757 33.5965 20.9215 33.4587 21.2627C33.4587 21.2627 33.69 21.521 33.818 21.521C33.7885 21.8866 33.8721 22.7397 34.2314 22.7592C34.2377 22.8815 34.2876 22.9978 34.3724 23.087C34.4571 23.1763 34.5711 23.2329 34.6941 23.2466C34.6941 23.0078 34.8319 22.8908 34.8417 22.7592C34.7039 22.9931 34.9796 22.3984 34.9796 22.3984L34.8762 22.0329L34.8122 20.941C34.9353 20.824 35.3044 20.5998 35.4422 20.4877C35.3339 20.2391 35.3339 20.2391 35.4717 19.8881C35.5948 19.8881 35.708 20.0148 35.9639 20.0295C35.9437 20.235 36.0031 20.4406 36.1301 20.6044C36.2571 20.7682 36.4423 20.8781 36.6481 20.9117C36.6481 20.668 36.5349 20.668 36.6825 20.3073H37.0418C36.8292 18.9877 36.4038 17.7106 35.7818 16.5247C34.9346 14.9076 33.7178 13.5089 32.2282 12.4399C31.3878 11.7478 30.4294 11.2097 29.3982 10.8508C29.3982 10.8508 29.2013 10.6997 29.1472 10.7241C29.093 10.7485 29.1471 10.7241 28.9749 10.9239C28.9375 10.971 28.8882 11.0075 28.8321 11.0298C28.7759 11.052 28.7148 11.0592 28.655 11.0507C28.7633 11.2993 28.655 11.1677 28.7632 11.4163H28.399C28.399 11.777 28.6058 12.0304 28.6008 12.1523C28.4778 12.2644 28.1086 12.1523 27.7592 12.1084C27.7592 11.8696 27.6706 11.3773 27.3064 11.3626C27.3064 11.4796 27.1686 11.7185 27.1587 11.8501C27.2768 11.9768 27.5033 12.3375 27.6165 12.4789C27.1243 12.4789 26.7355 13.0395 26.1399 12.7665C26.4106 12.1767 25.0866 11.9866 24.8455 11.9768L24.5895 12.2059C24.3533 12.0694 23.3394 12.9858 23.0834 13.2198L23.3049 13.7073C24.2893 13.1564 24.2893 13.4002 24.6781 12.9322C24.9144 12.9322 24.9685 12.8786 25.1703 13.0492C25.3721 13.2198 24.7421 13.678 24.7421 13.7804C24.7421 13.8827 24.8553 14.029 24.8455 14.1508C24.5944 14.2581 24.2302 14.3556 24.2204 14.4823C24.0973 14.4823 23.989 14.3458 23.866 14.3409C23.866 14.2191 24.1269 13.99 24.1318 13.8535C24.0186 13.7219 24.0186 13.7219 24.0284 13.6049C23.9054 13.6049 23.8906 13.717 23.7725 13.7121H23.5313C23.5313 13.9559 23.5313 13.9559 23.5313 14.0777C23.4083 14.1898 23.1523 14.4189 23.0391 14.4141C23.2901 14.185 22.4288 14.5018 22.3058 14.4969L21.9219 14.843C21.5241 14.759 21.1155 14.7376 20.7111 14.7796C20.7129 14.8422 20.7372 14.9021 20.7796 14.9486C20.822 14.9951 20.8797 15.025 20.9424 15.0331C20.9273 15.2567 20.8291 15.4668 20.6668 15.6229C20.5486 15.6229 20.5536 15.4962 20.3026 15.6229L19.8498 14.999C19.7816 15.0594 19.695 15.0955 19.6037 15.1014C19.6037 15.4718 19.4462 15.8228 19.4314 16.0763L19.0475 16.5637L19.018 17.0511C19.141 17.0511 19.2591 17.1779 19.3772 17.1925C19.7464 17.0853 20.0565 17.3046 20.4256 17.3241C20.4256 17.2023 20.7258 16.8952 20.7308 16.7782C20.9769 16.7782 21.0901 16.9147 21.3312 16.9244C21.5872 16.7002 21.853 16.2274 22.2172 16.242L22.6651 16.9927C22.6157 17.0372 22.5775 17.0926 22.5535 17.1544C22.5296 17.2162 22.5206 17.2826 22.5273 17.3485C22.5273 17.3485 22.2811 17.3485 22.3894 17.5825C22.3894 17.8262 22.8521 18.0699 22.9604 18.2161C23.0933 18.104 23.3541 17.6312 23.6051 17.524L23.6347 17.0365L23.8562 17.29V17.7774C24.1023 17.7774 24.3237 18.1625 24.309 18.4063C24.4216 17.9461 24.6077 17.5068 24.8602 17.1048C24.9833 17.1048 25.0915 17.3582 25.2097 17.3631L25.3425 17.251C25.4607 17.251 25.4508 17.3729 25.5788 17.3826C25.6147 17.1793 25.6657 16.9789 25.7314 16.7831C26.0907 16.7831 26.3171 17.056 26.6813 17.0755C26.747 16.8797 26.798 16.6793 26.8339 16.476L27.0898 16.2469C26.824 16.7343 27.7641 17.3729 27.9905 17.6263C27.7351 17.7009 27.4663 17.7192 27.203 17.68L26.9766 17.4265C26.6881 17.4283 26.4021 17.3736 26.135 17.2656L25.7461 17.6068C25.5099 17.6068 25.3967 17.4655 25.254 17.4606L25.0325 17.446ZM29.8411 17.9481L29.2407 17.9237C29.2232 17.7491 29.2743 17.5745 29.3834 17.4362L29.0389 17.0511H28.6747C28.5602 16.9535 28.4808 16.8219 28.4483 16.6758L28.5762 16.5588C28.7042 16.5588 28.9355 16.7002 29.0684 16.7099C29.1067 16.467 29.1576 16.2262 29.221 15.9885C29.2335 16.1154 29.2685 16.2392 29.3243 16.3541C29.5655 16.3541 29.5655 16.3541 29.6836 16.4955C29.6348 16.5405 29.5971 16.5959 29.5732 16.6576C29.5493 16.7193 29.5399 16.7855 29.5458 16.8513C29.664 16.8513 29.6541 16.978 29.7772 17.1048C29.6295 17.4606 29.9937 17.4752 30.1069 17.7238L29.8411 17.9481ZM13.4218 26.0446C13.815 25.7088 14.2365 25.4071 14.6818 25.1428C14.396 24.7883 14.1392 24.4118 13.914 24.0168V23.5293C13.7896 23.4994 13.6703 23.4517 13.5596 23.388L13.3283 23.2564C13.2166 22.8952 13.0268 22.5625 12.7721 22.2815C12.7568 23.5644 12.9769 24.8395 13.4218 26.0446ZM28.3941 29.832C28.276 29.832 27.9019 29.6858 27.7936 29.6809C27.7936 29.5639 27.9315 29.4469 28.0594 29.33L27.8232 29.0814V28.8328L28.084 28.6037L28.5762 28.6329C28.8321 28.4038 29.4769 27.7116 29.8362 27.7311C29.7083 27.8432 29.4621 27.9505 29.344 28.0675L29.5704 28.3161C29.4625 28.5415 29.407 28.788 29.408 29.0375C28.9158 29.3738 28.6402 29.8466 28.399 29.832H28.3941ZM36.8843 24.6992L36.8203 24.0899L36.1313 23.3295L36.1657 22.6032C36.0245 22.4297 35.9511 22.2117 35.959 21.989C36.2076 22.2329 36.4815 22.4502 36.776 22.6373L36.7465 23.1247L37.1009 23.388C37.0822 23.8337 37.0095 24.2756 36.8843 24.7041V24.6992Z" fill="#fff" />
        <path d="M13.8205 27.1267C19.7267 32.8493 30.6188 33.4196 35.5062 28.3648L13.8205 27.1267ZM13.0576 19.659C12.0732 27.0828 38.1197 27.8481 37.1304 20.9215L13.0576 19.659ZM14.7999 15.5596C14.3471 19.6346 36.3626 21.5162 35.7572 16.6612L14.7999 15.5596ZM18.6685 11.8647C15.7449 14.2532 35.1174 15.4036 32.3415 12.6105L18.6685 11.8647ZM24.5009 34.4189L25.6182 10.2415L24.5009 34.4189ZM25.6182 10.1245C29.979 10.3439 33.3505 15.9398 33.001 22.6714C32.7844 29.291 28.8519 34.6383 24.4862 34.4189C20.1205 34.1996 16.8671 28.6037 17.1034 21.9841C17.4479 15.2525 21.2476 10.0222 25.633 10.1245H25.6182Z" stroke="#00365F" stroke-width="0.522407" stroke-linecap="round" stroke-linejoin="round" />
        <path d="M18.206 34.1743C16.068 32.9771 14.2899 31.2384 13.054 29.1364C11.8181 27.0345 11.1688 24.6448 11.1726 22.2124C11.1681 20.413 11.5217 18.6304 12.2133 16.9665C12.9048 15.3026 13.9207 13.79 15.2029 12.5152C16.4851 11.2404 18.0084 10.2284 19.6857 9.53697C21.3631 8.84558 23.1616 8.4884 24.9785 8.48584C26.9434 8.48459 28.8857 8.90131 30.674 9.70779C32.4623 10.5143 34.0548 11.6917 35.3439 13.1605L41.6586 7.63281C39.5812 5.2744 37.0174 3.38446 34.14 2.09039C31.2626 0.796309 28.1386 0.128166 24.9785 0.13099C19.0756 0.142615 13.4189 2.47511 9.25186 6.61575C5.08481 10.7564 2.74842 16.3663 2.75626 22.2124C2.75216 26.4548 3.98433 30.6083 6.3049 34.1743H18.206ZM47.1859 22.2124C47.1881 19.913 46.8294 17.6272 46.1228 15.4368C45.9259 14.8324 45.7044 14.2475 45.4633 13.6674C45.2221 13.0873 44.5921 11.8736 44.5921 11.8736H39.936L37.7212 16.9333C37.8639 17.2794 37.9968 17.6352 38.1149 17.9959C38.5578 19.3567 38.782 20.7778 38.7794 22.2075C38.7901 25.8099 37.3624 29.2704 34.8074 31.8346C32.2766 34.3996 28.8255 35.8711 25.2049 35.9291H0V44.3084H25.2049C31.0601 44.2504 36.6539 41.8984 40.7629 37.7668C44.8911 33.6236 47.1996 28.0331 47.1859 22.2124ZM44.5773 35.9486C41.9256 39.6887 38.2462 42.5968 33.9756 44.3279H49.9471V35.934L44.5773 35.9486Z" fill="url(#paint0_linear_2_264)" />
        <path d="M61.0359 39.6686V44.7039H60.2533V40.3998H58.2452V44.7039H57.4675V39.6686H61.0359Z" fill="#fff" />
        <path d="M62.0942 41.3162C62.0942 40.6678 62.0942 40.1512 62.0548 39.6686H62.7586L62.798 40.5314C62.9294 40.2388 63.1443 39.9906 63.4163 39.8174C63.6882 39.6442 64.0054 39.5535 64.3287 39.5565C65.3771 39.5565 66.1596 40.585 66.1596 42.1156C66.1596 43.924 65.2146 44.816 64.1909 44.816C63.9173 44.8193 63.6481 44.7472 63.4134 44.6077C63.1788 44.4683 62.9879 44.267 62.862 44.0264V46.7609H62.0893L62.0942 41.3162ZM62.8669 42.6566C62.8704 42.7823 62.8819 42.9077 62.9014 43.032C62.9449 43.317 63.086 43.5787 63.301 43.773C63.5161 43.9673 63.792 44.0826 64.0826 44.0995C64.9144 44.0995 65.3968 43.3098 65.3968 42.1497C65.3968 41.1407 64.939 40.2779 64.1072 40.2779C63.8089 40.3063 63.5291 40.4341 63.3137 40.6404C63.0982 40.8467 62.9598 41.1193 62.9211 41.4136C62.89 41.5366 62.8718 41.6623 62.8669 41.789V42.6566Z" fill="#fff" />
        <path d="M70.8551 42.1449C70.8551 44.0069 69.7477 44.8161 68.7043 44.8161C67.5329 44.8161 66.6371 43.8412 66.6371 42.2277C66.6371 40.5412 67.5821 39.5565 68.7781 39.5565C69.9741 39.5565 70.8551 40.5899 70.8551 42.1449ZM67.4098 42.1985C67.4098 43.3001 67.9512 44.1483 68.719 44.1483C69.4868 44.1483 70.0332 43.3245 70.0332 42.1985C70.0332 41.3455 69.664 40.2487 68.7387 40.2487C67.8134 40.2487 67.4295 41.2431 67.4295 42.1985H67.4098Z" fill="#fff" />
        <path d="M74.9059 39.6686V44.002H75.3538L75.3095 46.2783H74.6942L74.6549 44.6795H71.6673L71.6328 46.2783H71.0078L70.9684 44.002H71.3375C71.5253 43.6793 71.6693 43.3334 71.7657 42.9734C71.9366 42.3176 72.021 41.6425 72.0167 40.9652V39.6539L74.9059 39.6686ZM72.7206 41.1991C72.7237 41.8297 72.6494 42.4582 72.4991 43.0709C72.4097 43.3922 72.2928 43.7053 72.1496 44.0068H74.1184V40.3656H72.7009L72.7206 41.1991Z" fill="#fff" />
        <path d="M76.3283 39.6686L77.2733 42.6469C77.3717 42.9783 77.48 43.3732 77.5489 43.6754C77.6326 43.3732 77.7212 42.9881 77.8295 42.6225L78.6859 39.6686H79.5177L78.3364 43.2562C77.7753 44.9818 77.3914 45.8689 76.8599 46.41C76.5972 46.6979 76.2549 46.903 75.8755 46.9998L75.6786 46.2345C75.9372 46.1338 76.1718 45.9811 76.3677 45.786C76.6615 45.4994 76.8868 45.1513 77.0272 44.7673C77.0594 44.6977 77.0809 44.6238 77.0912 44.5479C77.0837 44.4663 77.0655 44.386 77.0371 44.3091L75.4424 39.6686H76.3283Z" fill="#fff" />
        <path d="M80.7972 39.6686V41.8572H80.9842L82.6084 39.6686H83.5633L81.6831 41.9498C82.3771 42.0327 82.7955 42.5738 83.1351 43.4755C83.2658 43.8933 83.4203 44.3034 83.5977 44.7039H82.7758C82.6183 44.3709 82.4851 44.0272 82.3771 43.6754C82.0818 42.8614 81.6831 42.4909 80.9498 42.4909H80.7972V44.7039H80.0195V39.6686H80.7972Z" fill="#fff" />
        <path d="M87.1417 39.6686V40.3998H85.7734V44.7039H85.0007V40.3998H83.6521V39.6686H87.1417Z" fill="#fff" />
        <path d="M88.3672 39.6686V41.3844C88.5989 41.3384 88.8349 41.3171 89.0711 41.321C89.9964 41.321 90.9365 41.7695 90.9365 43.0076C90.9479 43.222 90.914 43.4363 90.8368 43.637C90.7597 43.8376 90.6411 44.02 90.4886 44.1726C90.0088 44.5848 89.3852 44.7948 88.7512 44.7575C88.3628 44.7566 87.9749 44.7322 87.5896 44.6844V39.6686H88.3672ZM88.3672 44.0556C88.5466 44.0809 88.7275 44.094 88.9087 44.0946C89.5091 44.0946 90.1588 43.807 90.1588 43.0271C90.1588 42.2472 89.5337 41.9645 88.9431 41.9645C88.7498 41.9623 88.5568 41.9802 88.3672 42.0181V44.0556ZM92.2555 39.6686V44.7039H91.4779V39.6686H92.2555Z" fill="#fff" />
        <path d="M98.5406 39.6686V44.7039H97.7531V40.3998H95.7449V44.7039H94.9673V39.6686H98.5406Z" fill="#fff" />
        <path d="M100.312 39.6686V41.7939C100.312 42.5933 100.312 43.0905 100.268 43.8119H100.298C100.559 43.2075 100.706 42.837 100.992 42.2716L102.34 39.6686H103.261V44.7039H102.508V42.5738C102.508 41.75 102.508 41.321 102.562 40.5119H102.537C102.261 41.1553 102.074 41.5648 101.823 42.0717C101.41 42.8516 100.937 43.8216 100.475 44.7039H99.5544V39.6686H100.312Z" fill="#fff" />
        <path d="M107.203 39.6686V40.3998H105.855V44.7039H105.082V40.3998H103.733V39.6686H107.203Z" fill="#fff" />
        <path d="M110.638 43.5146C110.633 43.9188 110.658 44.3228 110.712 44.7234H109.999L109.935 44.0898C109.797 44.3164 109.603 44.5041 109.371 44.6348C109.139 44.7654 108.877 44.8346 108.611 44.8356C108.424 44.8331 108.241 44.7923 108.071 44.7159C107.902 44.6395 107.751 44.529 107.627 44.3915C107.503 44.254 107.409 44.0925 107.351 43.9172C107.293 43.7419 107.273 43.5567 107.292 43.3732C107.292 42.1546 108.217 41.4917 109.89 41.5014V41.399C109.89 40.9798 109.787 40.234 108.906 40.234C108.501 40.2375 108.108 40.369 107.784 40.6094L107.602 40.0049C108.013 39.7091 108.51 39.5519 109.019 39.5565C110.343 39.5565 110.663 40.6094 110.663 41.6135L110.638 43.5146ZM109.89 42.1351C109.034 42.1351 108.059 42.2911 108.059 43.2708C108.059 43.8607 108.399 44.1434 108.803 44.1434C109.046 44.1359 109.28 44.0493 109.469 43.8969C109.657 43.7444 109.79 43.5347 109.846 43.3001C109.873 43.2115 109.888 43.1197 109.89 43.0271V42.1351Z" fill="#fff" />
        <path d="M112.445 39.6686V41.6964H114.497V39.6686H115.27V44.7039H114.497V42.4275H112.445V44.7039H111.667V39.6686H112.445Z" fill="#fff" />
        <path d="M117.057 39.6686V41.7939C117.057 42.5933 117.057 43.0905 117.012 43.8119C117.273 43.2075 117.426 42.837 117.711 42.2716L119.06 39.6686H119.975V44.7039H119.242V42.5738C119.242 41.75 119.242 41.321 119.296 40.5119H119.272C118.991 41.1553 118.804 41.5648 118.558 42.0717C118.144 42.8516 117.672 43.8216 117.209 44.7039H116.304V39.6686H117.057Z" fill="#fff" />
        <path d="M124.237 44.7039H123.465V42.5933H122.884C122.75 42.5853 122.616 42.606 122.491 42.6539C122.367 42.7019 122.254 42.776 122.16 42.8711C121.84 43.1733 121.722 43.7973 121.555 44.2896C121.503 44.4307 121.444 44.569 121.378 44.7039H120.536C120.642 44.5222 120.731 44.3313 120.802 44.1336C120.994 43.6462 121.097 42.9881 121.481 42.6128C121.613 42.4704 121.784 42.3688 121.973 42.3203V42.2911C121.659 42.264 121.367 42.1204 121.155 41.889C120.943 41.6576 120.828 41.3555 120.831 41.0432C120.824 40.828 120.873 40.6146 120.973 40.4234C121.073 40.2323 121.221 40.0697 121.402 39.9513C121.842 39.703 122.344 39.5846 122.849 39.6101C123.314 39.6121 123.778 39.6463 124.237 39.7125V44.7039ZM123.465 40.273C123.25 40.2392 123.032 40.2229 122.815 40.2243C122.278 40.2243 121.644 40.3998 121.644 41.0968C121.644 41.7939 122.328 41.9693 122.795 41.9693H123.465V40.273Z" fill="#fff" />
        <path d="M127.683 39.6686V41.7939C127.683 42.5933 127.683 43.0905 127.644 43.8119H127.668C127.924 43.2075 128.077 42.837 128.362 42.2716L129.711 39.6686H130.631V44.7039H129.883V42.5738C129.883 41.75 129.883 41.321 129.937 40.5119H129.908C129.632 41.1553 129.44 41.5648 129.194 42.0717C128.781 42.8516 128.308 43.8216 127.846 44.7039H126.945V39.6686H127.683Z" fill="#fff" />
        <path d="M136.907 39.6686V44.7039H136.119V40.3998H134.111V44.7039H133.333V39.6686H136.907Z" fill="#fff" />
        <path d="M138.678 39.6686V41.7939C138.678 42.5933 138.678 43.0905 138.634 43.8119H138.664C138.92 43.2075 139.072 42.837 139.358 42.2716L140.706 39.6686H141.622V44.7039H140.898V42.5738C140.898 41.75 140.898 41.321 140.952 40.5119H140.898C140.618 41.1553 140.431 41.5648 140.185 42.0717C139.771 42.8516 139.299 43.8216 138.836 44.7039H137.945V39.6686H138.678Z" fill="#fff" />
        <path d="M143.428 39.6686V44.002H144.939V39.6832H145.702V44.002H147.213V39.6832H147.991V44.002H148.424L148.384 46.2784H147.789L147.754 44.6795H142.675V39.6686H143.428Z" fill="#fff" />
        <path d="M149.541 42.3545C149.541 43.5926 150.235 44.0995 151.017 44.0995C151.432 44.1146 151.843 44.0257 152.213 43.8412L152.346 44.4944C151.902 44.7176 151.408 44.8281 150.909 44.8161C149.58 44.8161 148.783 43.7876 148.783 42.2716C148.783 40.7556 149.556 39.5565 150.811 39.5565C152.223 39.5565 152.597 41.0189 152.597 41.9255C152.596 42.0689 152.586 42.2122 152.568 42.3545H149.541ZM151.844 41.6964C151.844 41.1164 151.638 40.2097 150.757 40.2097C149.959 40.2097 149.615 41.0627 149.551 41.6964H151.844Z" fill="#fff" />
        <path d="M153.331 39.7319C153.786 39.6543 154.247 39.6168 154.709 39.6198C155.432 39.6198 156.628 39.7514 156.628 40.8774C156.634 41.1409 156.547 41.3981 156.381 41.6045C156.216 41.811 155.983 41.9538 155.723 42.0083V42.0522C156.033 42.0806 156.32 42.226 156.525 42.4582C156.73 42.6904 156.838 42.9917 156.825 43.3C156.825 44.621 155.393 44.7867 154.546 44.7867C154.054 44.7867 153.562 44.7429 153.331 44.7234V39.7319ZM154.074 44.1189C154.284 44.1515 154.496 44.1662 154.709 44.1628C155.235 44.1628 156.018 44.0166 156.018 43.2903C156.018 42.564 155.393 42.4031 154.645 42.4031H154.074V44.1189ZM154.074 41.7987H154.679C155.26 41.7987 155.86 41.6037 155.86 41.009C155.86 40.5216 155.486 40.273 154.699 40.273C154.496 40.2738 154.294 40.2868 154.093 40.312L154.074 41.7987Z" fill="#fff" />
        <path d="M158.351 39.6686V41.3844C158.583 41.3384 158.819 41.3171 159.055 41.321C159.98 41.321 160.92 41.7695 160.92 43.0076C160.932 43.222 160.898 43.4363 160.821 43.637C160.743 43.8376 160.625 44.02 160.472 44.1726C159.993 44.5848 159.369 44.7948 158.735 44.7575C158.345 44.7562 157.955 44.7318 157.568 44.6844V39.6686H158.351ZM158.351 44.0556C158.53 44.081 158.711 44.0941 158.892 44.0946C159.493 44.0946 160.143 43.807 160.143 43.0271C160.143 42.2472 159.517 41.9645 158.927 41.9645C158.733 41.9623 158.54 41.9802 158.351 42.0181V44.0556ZM162.239 39.6686V44.7039H161.462V39.6686H162.239Z" fill="#fff" />
        <path d="M163.741 42.3545C163.741 43.5926 164.435 44.0995 165.217 44.0995C165.631 44.1146 166.043 44.0257 166.413 43.8412L166.546 44.4944C166.101 44.7176 165.607 44.8281 165.109 44.8161C163.78 44.8161 162.983 43.7876 162.983 42.2716C162.983 40.7556 163.75 39.5565 165.01 39.5565C166.423 39.5565 166.792 41.0189 166.792 41.9255C166.792 42.0688 166.784 42.212 166.768 42.3545H163.741ZM166.039 41.6964C166.039 41.1164 165.837 40.2097 164.951 40.2097C164.159 40.2097 163.81 41.0627 163.746 41.6964H166.039Z" fill="#fff" />
        <path d="M169.937 39.6686V41.7939C169.937 42.5933 169.937 43.0905 169.888 43.8119H169.918C170.178 43.2075 170.326 42.837 170.612 42.2716L171.96 39.6686H172.89V44.7039H172.142V42.5738C172.142 41.75 172.142 41.321 172.191 40.5119C171.916 41.1553 171.729 41.5648 171.478 42.0717C171.069 42.8516 170.592 43.8216 170.129 44.7039H169.229V39.6686H169.937Z" fill="#fff" />
        <path d="M174.697 39.6686V41.6964H176.749V39.6686H177.527V44.7039H176.749V42.4275H174.697V44.7039H173.919V39.6686H174.697Z" fill="#fff" />
        <path d="M181.223 39.6686V40.4095H179.348V44.7039H178.57V39.6686H181.223Z" fill="#fff" />
        <path d="M181.75 41.3162C181.75 40.6679 181.75 40.1512 181.71 39.6686H182.419L182.454 40.5314C182.585 40.2381 182.801 39.9894 183.074 39.8161C183.347 39.6429 183.665 39.5526 183.989 39.5565C185.033 39.5565 185.815 40.585 185.815 42.1156C185.815 43.924 184.87 44.8161 183.847 44.8161C183.573 44.8193 183.304 44.7472 183.069 44.6078C182.834 44.4684 182.643 44.2671 182.518 44.0264V46.761H181.75V41.3162ZM182.527 42.6567C182.529 42.7825 182.54 42.9081 182.562 43.032C182.604 43.3136 182.741 43.5728 182.951 43.7668C183.161 43.9608 183.432 44.0782 183.719 44.0995C184.55 44.0995 185.033 43.3099 185.033 42.1497C185.033 41.1407 184.575 40.2779 183.748 40.2779C183.449 40.3046 183.168 40.4319 182.953 40.6385C182.737 40.8451 182.599 41.1187 182.562 41.4137C182.528 41.5361 182.51 41.6622 182.508 41.789L182.527 42.6567Z" fill="#fff" />
        <path d="M187.031 42.3545C187.031 43.5926 187.73 44.0995 188.507 44.0995C188.921 44.1146 189.333 44.0257 189.703 43.8412L189.836 44.4944C189.391 44.7176 188.897 44.8281 188.399 44.8161C187.07 44.8161 186.278 43.7876 186.278 42.2716C186.278 40.7556 187.045 39.5565 188.3 39.5565C189.713 39.5565 190.087 41.0189 190.087 41.9255C190.087 42.1156 190.087 42.2619 190.087 42.3545H187.031ZM189.334 41.6964C189.334 41.1164 189.127 40.2097 188.246 40.2097C187.449 40.2097 187.1 41.0627 187.04 41.6964H189.334Z" fill="#fff" />
        <path d="M194.217 39.6686V44.002H194.66L194.615 46.2783H194L193.966 44.6795H190.973L190.939 46.2783H190.324L190.289 44.002H190.653C190.841 43.6793 190.985 43.3334 191.081 42.9734C191.255 42.318 191.339 41.6427 191.332 40.9652V39.6539L194.217 39.6686ZM192.031 41.1991C192.033 41.8299 191.957 42.4584 191.805 43.0709C191.72 43.3936 191.603 43.7071 191.456 44.0068H193.449V40.3656H192.031V41.1991Z" fill="#fff" />
        <path d="M196.097 39.6686V41.7939C196.097 42.5933 196.097 43.0905 196.053 43.8119H196.077C196.338 43.2075 196.491 42.837 196.776 42.2716L198.125 39.6686H199.04V44.7039H198.292V42.5738C198.292 41.75 198.292 41.321 198.346 40.5119H198.322C198.046 41.1553 197.859 41.5648 197.608 42.0717C197.199 42.8516 196.722 43.8216 196.259 44.7039H195.359V39.6686H196.097Z" fill="#fff" />
        <path d="M200.532 42.3545C200.532 43.5926 201.231 44.0995 202.008 44.0995C202.424 44.1137 202.837 44.0249 203.209 43.8412L203.337 44.4944C202.892 44.7176 202.398 44.8281 201.9 44.8161C200.571 44.8161 199.779 43.7876 199.779 42.2716C199.779 40.7556 200.546 39.5565 201.806 39.5565C203.214 39.5565 203.588 41.0189 203.588 41.9255C203.596 42.0684 203.596 42.2116 203.588 42.3545H200.532ZM202.835 41.6964C202.835 41.1164 202.628 40.2097 201.747 40.2097C200.955 40.2097 200.605 41.0627 200.541 41.6964H202.835Z" fill="#fff" />
        <path d="M205.104 39.6686V41.6964H207.151V39.6686H207.929V44.7039H207.151V42.4275H205.104V44.7039H204.326V39.6686H205.104Z" fill="#fff" />
        <path d="M211.886 39.6686V40.3998H210.538V44.7039H209.76V40.3998H208.411V39.6686H211.886Z" fill="#fff" />
        <path d="M213.107 39.6686V41.3844C213.338 41.3386 213.574 41.3174 213.81 41.321C214.741 41.321 215.676 41.7695 215.676 43.0076C215.688 43.2216 215.655 43.4359 215.579 43.6365C215.503 43.8372 215.385 44.0198 215.233 44.1726C214.75 44.5833 214.126 44.793 213.49 44.7575C213.102 44.7564 212.714 44.732 212.329 44.6844V39.6686H213.107ZM213.107 44.0556C213.287 44.081 213.47 44.094 213.653 44.0946C213.807 44.1145 213.964 44.1019 214.114 44.0576C214.263 44.0134 214.401 43.9384 214.519 43.8376C214.637 43.7369 214.732 43.6126 214.798 43.473C214.864 43.3333 214.9 43.1813 214.903 43.0271C214.903 42.2131 214.273 41.9645 213.687 41.9645C213.492 41.9626 213.298 41.9805 213.107 42.0181V44.0556ZM217 39.6686V44.7039H216.202V39.6686H217Z" fill="#fff" />
        <path d="M77.5635 4.90869H70.4219L57.4675 35.1304H64.8503C64.8503 35.1304 67.5081 28.4817 67.5672 28.3062H80.5658C80.6249 28.467 83.4402 35.1304 83.4402 35.1304H90.9953L77.6816 4.90869H77.5635ZM69.6885 23.0222C69.8263 22.7152 73.7146 12.9808 73.9558 12.3959C74.192 12.9808 78.159 22.7152 78.2969 23.0222H69.6885Z" fill="#fff" />
        <path d="M114.98 23.9679C114.429 26.1321 113.503 27.7358 112.297 28.7205C111.053 29.7356 109.479 30.2706 107.868 30.2267C106.808 30.262 105.753 30.0684 104.776 29.6593C103.8 29.2502 102.925 28.6355 102.212 27.8577C100.765 26.293 100.017 23.5877 100.017 19.8392C100.017 16.3149 100.765 13.7363 102.232 12.1765C102.971 11.3996 103.868 10.7878 104.865 10.3818C105.861 9.97579 106.934 9.785 108.01 9.82214C109.57 9.77575 111.101 10.2401 112.366 11.1431C113.561 12.0318 114.398 13.3119 114.729 14.7551L114.753 14.8819L121.536 13.3951L121.496 13.2684C120.743 10.8312 119.606 8.96911 118.125 7.692C115.629 5.50336 112.337 4.39685 108.33 4.39685C103.763 4.39685 100.017 5.80558 97.2069 8.57915C94.3965 11.3527 92.9741 15.3011 92.9741 20.2779C92.9741 25.0061 94.3916 28.7936 97.1872 31.5233C99.9828 34.253 103.586 35.6422 107.932 35.6422C111.441 35.6422 114.374 34.838 116.658 33.2343C118.942 31.6306 120.596 29.1543 121.58 25.8738L121.614 25.7666L114.995 23.8168L114.98 23.9679Z" fill="#fff" />
        <path d="M216.857 4.90869H210.159V16.7049H197.534V4.90869H190.673V35.1304H197.534V22.0327H210.159V35.1402H217V4.91844L216.857 4.90869Z" fill="#fff" />
        <path d="M124.927 4.90869V10.2365H134.392V35.1402H141.12V10.2365H150.56V4.90869H124.927Z" fill="#fff" />
        <path d="M169.74 4.39696C167.312 4.35239 164.898 4.76254 162.623 5.60583C161.029 6.22111 159.573 7.14026 158.336 8.31116C157.077 9.50951 156.04 10.9167 155.27 12.4691C154.286 14.5505 153.769 17.1437 153.769 20.2146C153.769 24.9965 155.245 28.8035 158.105 31.5332C160.965 34.2629 164.941 35.6521 169.829 35.6521C174.642 35.6521 178.55 34.2483 181.44 31.5039C184.329 28.7596 185.79 24.9136 185.79 20.0538C185.79 15.1939 184.314 11.2797 181.42 8.55976C178.526 5.8398 174.569 4.39696 169.74 4.39696ZM163.386 27.6482C161.703 25.9178 160.846 23.3489 160.846 20.005C160.846 16.6611 161.673 14.0289 163.307 12.3472C164.941 10.6655 167.127 9.82225 169.794 9.82225C172.462 9.82225 174.638 10.6607 176.247 12.3131C177.856 13.9656 178.673 16.5393 178.673 19.927C178.673 23.3148 177.837 25.9519 176.213 27.6531C175.388 28.5021 174.392 29.17 173.289 29.6134C172.187 30.0567 171.003 30.2657 169.814 30.2268C168.62 30.2653 167.432 30.0557 166.324 29.6116C165.217 29.1675 164.216 28.4987 163.386 27.6482Z" fill="#fff" />
    </g>
    <defs>
        <linearGradient id="paint0_linear_2_264" x1="0" y1="22.2172" x2="49.9471" y2="22.2172" gradientUnits="userSpaceOnUse">
            <stop stop-color="#E30613" />
            <stop offset="1" stop-color="#8A1002" />
        </linearGradient>
        <clipPath id="clip0_2_264">
            <rect width="217" height="46.8827" fill="white" transform="translate(0 0.117188)" />
        </clipPath>
    </defs>
</svg>